<svg viewBox="0 0 24 24" xmlns="http://www.w3.org/2000/svg" id="Analytics-Graph--Streamline-Ultimate.svg" height="24" width="24"><desc>Analytics Graph Streamline Icon: https://streamlinehq.com</desc><path d="m0.75 0.75 0 22.5 22.5 0" fill="none" stroke="#fdba74" stroke-linecap="round" stroke-linejoin="round" stroke-width="0.5"></path><path d="m15.937 8.578 4.493 -5.616" fill="none" stroke="#fdba74" stroke-linecap="round" stroke-linejoin="round" stroke-width="0.5"></path><path d="m9.621 7.359 4.008 1.781" fill="none" stroke="#fdba74" stroke-linecap="round" stroke-linejoin="round" stroke-width="0.5"></path><path d="m0.75 11.25 6.214 -3.728" fill="none" stroke="#fdba74" stroke-linecap="round" stroke-linejoin="round" stroke-width="0.5"></path><path d="m15.561 16.521 4.74 -2.633" fill="none" stroke="#fdba74" stroke-linecap="round" stroke-linejoin="round" stroke-width="0.5"></path><path d="m8.25 17.25 4.5 0" fill="none" stroke="#fdba74" stroke-linecap="round" stroke-linejoin="round" stroke-width="0.5"></path><path d="m0.75 20.25 4.658 -2.329" fill="none" stroke="#fdba74" stroke-linecap="round" stroke-linejoin="round" stroke-width="0.5"></path><path d="M6.75 6.75a1.5 1.5 0 1 0 3 0 1.5 1.5 0 1 0 -3 0Z" fill="none" stroke="#fdba74" stroke-linecap="round" stroke-linejoin="round" stroke-width="0.5"></path><path d="M13.5 9.75a1.5 1.5 0 1 0 3 0 1.5 1.5 0 1 0 -3 0Z" fill="none" stroke="#fdba74" stroke-linecap="round" stroke-linejoin="round" stroke-width="0.5"></path><path d="M20.25 2.25a1.5 1.5 0 1 0 3 0 1.5 1.5 0 1 0 -3 0Z" fill="none" stroke="#fdba74" stroke-linecap="round" stroke-linejoin="round" stroke-width="0.5"></path><path d="M20.25 13.5a1.5 1.5 0 1 0 3 0 1.5 1.5 0 1 0 -3 0Z" fill="none" stroke="#fdba74" stroke-linecap="round" stroke-linejoin="round" stroke-width="0.5"></path><path d="M12.75 17.25a1.5 1.5 0 1 0 3 0 1.5 1.5 0 1 0 -3 0Z" fill="none" stroke="#fdba74" stroke-linecap="round" stroke-linejoin="round" stroke-width="0.5"></path><path d="M5.25 17.25a1.5 1.5 0 1 0 3 0 1.5 1.5 0 1 0 -3 0Z" fill="none" stroke="#fdba74" stroke-linecap="round" stroke-linejoin="round" stroke-width="0.5"></path></svg>