<svg viewBox="0 0 24 24" xmlns="http://www.w3.org/2000/svg" id="Analytics-Bars--Streamline-Ultimate.svg" height="24" width="24"><desc>Analytics Bars Streamline Icon: https://streamlinehq.com</desc><path d="m0.75 21.75 22.5 0" fill="none" stroke="#fdba74" stroke-linecap="round" stroke-linejoin="round" stroke-width="0.5"></path><path d="M6 11.25H3a0.75 0.75 0 0 0 -0.75 0.75v9.75h4.5V12a0.75 0.75 0 0 0 -0.75 -0.75Z" fill="none" stroke="#fdba74" stroke-linecap="round" stroke-linejoin="round" stroke-width="0.5"></path><path d="M13.5 2.25h-3a0.75 0.75 0 0 0 -0.75 0.75v18.75h4.5V3a0.75 0.75 0 0 0 -0.75 -0.75Z" fill="none" stroke="#fdba74" stroke-linecap="round" stroke-linejoin="round" stroke-width="0.5"></path><path d="M21 6.75h-3a0.75 0.75 0 0 0 -0.75 0.75v14.25h4.5V7.5a0.75 0.75 0 0 0 -0.75 -0.75Z" fill="none" stroke="#fdba74" stroke-linecap="round" stroke-linejoin="round" stroke-width="0.5"></path></svg>