<svg width="20" height="18" viewBox="0 0 20 18" fill="none" xmlns="http://www.w3.org/2000/svg">
<path d="M1 3H1.01919M1.01919 3H7M1.01919 3C1 3.31438 1 3.70191 1 4.2002V13.8002C1 14.9203 1 15.4796 1.21799 15.9074C1.40973 16.2837 1.71547 16.5905 2.0918 16.7822C2.51921 17 3.079 17 4.19694 17L7 17M1.01919 3C1.04314 2.60768 1.09697 2.3293 1.21799 2.0918C1.40973 1.71547 1.71547 1.40973 2.0918 1.21799C2.51962 1 3.08009 1 4.2002 1H15.8002C16.9203 1 17.4796 1 17.9074 1.21799C18.2837 1.40973 18.5905 1.71547 18.7822 2.0918C18.9032 2.3293 18.957 2.60768 18.9809 3M7 3H18.9809M7 3V17M18.9809 3H19M18.9809 3C19 3.31368 19 3.70021 19 4.19691L19 13.8031C19 14.921 19 15.48 18.7822 15.9074C18.5905 16.2837 18.2837 16.5905 17.9074 16.7822C17.48 17 16.921 17 15.8031 17H7" stroke="#fdba74" stroke-width="2" stroke-linecap="round" stroke-linejoin="round"/>
</svg>
